<svg xmlns="http://www.w3.org/2000/svg" viewBox="0 0 1000 1200">
    <path d="M809,641c-19,29-47,53-76,70c-46,25-103,39-148,56c-24,8-47,19-70,26c-39,11-78,20-117,28
    c-10,1-19,5-27,14c-9,8-15,18-22,28c-21,34-42,68-63,101c-19,30-37,60-56,91c-16,23-33,46-51,69c-15,19-32,39-49,58
    c-27,30-56,59-88,87c-1,1-3,3-5,4c-10,8-21,18-32,26c-7,5-14,10-21,16c-13,10-27,20-41,30c-25,17-51,35-76,53c-1,0-2,1-3,2
    c-1,2-3,3-4,4c-11,11-21,22-31,33c-19,21-38,41-57,62c-7,9-14,18-22,27c-13,16-28,31-42,47c-11,14-23,27-34,42c-12,16-25,31-37,47
    c-16,20-31,40-46,61c-16,22-31,44-46,66c-20,28-41,57-62,87c-18,25-37,50-55,76c-23,34-45,69-67,103c-22,34-43,68-64,102c-4,7-8,14-12,21c-5,9-9,17-13,26
    c-20,31-40,61-60,92c-17,27-35,54-53,81c-13,19-27,37-40,56c-16,23-32,46-48,69c-14,20-29,40-44,60c-15,21-29,43-44,64c-20,28-41,57-61,85
    c-11,15-21,31-31,47c-10,14-20,29-30,43c-11,15-22,30-32,45c-17,23-34,47-50,71c-16,22-33,44-49,66c-8,12-17,24-25,36c-7,10-14,21-21,31c-25,33-50,66-76,98
    c-8,12-16,23-24,34c-2,3-3,7-5,11c-14,21-29,42-43,63c-19,26-38,52-57,78c-21,27-42,53-63,79c-7,8-15,16-22,24c-19,23-38,46-58,69c-11,14-23,28-35,42
    c-16,18-32,37-48,56c-14,19-28,39-42,59c-17,24-34,48-51,72c-20,28-40,56-60,83c-16,22-33,44-50,66c-3,5-6,10-9,15c-2,3-4,7-6,10c-20,26-41,52-62,79
    c-23,29-46,58-70,87c-9,11-18,21-27,31c-5,5-10,10-15,15c-1,1-2,3-3,4c-1,1-2,3-3,4l-22,28l-10,13l-1,1c-10,13-21,26-32,39c-17,17-36,35-55,52
    c-16,15-32,31-48,46c-15,15-30,30-45,45c-8,8-17,16-25,24c-7,7-14,14-21,21l-19,19l-18,18l-19,19l-21,21l-10,10l-12,12l-18,18l-9,9
    l-3,3l-6,6c-9,9-17,18-25,27c-5,8-11,17-16,26c-7,13-14,26-20,39c-6,13-12,25-17,38c-5,13-9,27-14,40c-5,14-10,27-16,40c-6,13-12,27-18,41
    c-6,14-12,28-19,42c-6,14-13,28-19,42c-7,15-14,29-21,43c-7,14-15,29-22,43c-9,15-18,30-27,45c-11,18-22,36-33,54c-9,14-18,28-27,42
    c-7,10-15,19-22,29c-18,27-37,54-55,81c-12,16-24,32-36,47c-18,24-37,47-56,70c-9,11-19,22-28,33c-5,7-10,14-15,21c-21,27-41,55-62,82
    c-6,8-12,16-18,24c-11,15-22,30-34,46c-17,23-33,47-50,71c-11,16-22,32-33,48c-17,23-34,47-51,70c-8,11-16,23-24,34c-8,11-16,21-25,31
    c-5,6-10,13-15,19c-9,10-19,20-29,29c-10,11-20,22-31,32c-8,9-17,18-25,28c-7,10-15,21-23,31c-11,15-22,31-33,46c-19,26-39,52-59,78c-5,7-10,14-15,21"/>
</svg>
