<svg xmlns="http://www.w3.org/2000/svg" shape-rendering="geometricPrecision" text-rendering="geometricPrecision" image-rendering="optimizeQuality" fill-rule="evenodd" clip-rule="evenodd" viewBox="0 0 512 356.18"><g fill-rule="nonzero"><path fill="#C1272D" d="M28.137 0H483.86C499.337 0 512 12.663 512 28.14v299.9c0 15.477-12.663 28.14-28.14 28.14H28.137C12.663 356.18 0 343.517 0 328.04V28.14C0 12.663 12.663 0 28.137 0z"/><path fill="#006233" d="M256 141.898l-4.825 14.855h9.651L256 141.898zm-8.131 25.027l-5.01 15.423L256 191.894l13.141-9.548-5.01-15.421h-16.262zm-8.309 25.58l-4.82 14.832 12.619-9.166-7.799-5.666zm-19.304 26.555l10.667-32.83-40.579-29.477h50.155L256 109.039l15.502 47.714h50.154l-40.578 29.477 15.495 47.692L256 204.448l-40.572 29.474 4.828-14.862zm13.967-42.987l2.972-9.148h-15.566l12.594 9.148zm43.555 0l12.593-9.148h-15.564l2.971 9.148zm-5.336 16.432l-7.801 5.666 12.62 9.166-4.819-14.832z"/></g></svg>
